<svg width="500" height="500" viewBox="0 0 500 500" fill="none" xmlns="http://www.w3.org/2000/svg">
<rect width="500" height="500" fill="white"/>
<rect x="119" y="64" width="263" height="373" rx="20" stroke="#0000FF" stroke-width="20"/>
<rect x="156.5" y="177.5" width="49" height="58" rx="4.5" fill="#0000FF" stroke="black"/>
<rect x="156.5" y="249.5" width="49" height="58" rx="4.5" fill="#0000FF" stroke="black"/>
<rect x="156.5" y="332.5" width="119" height="58" rx="4.5" fill="#0000FF" stroke="black"/>
<rect x="295.5" y="177.5" width="49" height="58" rx="4.5" fill="#0000FF" stroke="black"/>
<rect x="226.5" y="177.5" width="49" height="130" rx="4.5" fill="#0000FF" stroke="black"/>
<rect x="295.5" y="249.5" width="49" height="141" rx="4.5" fill="#0000FF" stroke="black"/>
<path d="M338 97C341.866 97 345 100.134 345 104V143C345 146.866 341.866 150 338 150H163C159.134 150 156 146.866 156 143V104C156 100.134 159.134 97 163 97H338ZM168 144H170V112H168V144ZM176 144H178V124H176V144ZM184 144H186V119H184V144ZM192 144H194V124H192V144ZM200 144H203V112H200V144ZM209 144H211V124H209V144ZM217 144H219V119H217V144ZM225 144H227V124H225V144ZM233 144H236V112H233V144ZM242 144H244V124H242V144ZM250 144H252V119H250V144ZM258 144H260V124H258V144ZM266 144H269V112H266V144ZM275 144H277V124H275V144ZM283 144H285V119H283V144ZM291 144H293V124H291V144ZM299 144H302V112H299V144ZM308 144H310V124H308V144ZM316 144H318V119H316V144ZM324 144H326V124H324V144ZM332 112V144H334V112H332Z" fill="black"/>
</svg>
